<svg width="128" height="128" viewBox="0 0 128 128" fill="none" xmlns="http://www.w3.org/2000/svg">
<path d="M101 14C108.18 14 114 19.8203 114 27V101C114 108.18 108.18 114 101 114H27L26.6641 113.996C19.6396 113.818 14 108.067 14 101V27C14 19.9326 19.6396 14.1821 26.6641 14.0039L27 14H101ZM27 21C23.6863 21 21 23.6863 21 27V101C21 104.314 23.6863 107 27 107H101C104.314 107 107 104.314 107 101V27C107 23.6863 104.314 21 101 21H27ZM38 60C38.5523 60 39 60.4477 39 61V93H41V74C41 73.4477 41.4477 73 42 73H50C50.5523 73 51 73.4477 51 74V93H53V65C53 64.4477 53.4477 64 54 64H61C61.5523 64 62 64.4477 62 65V93H98.5C99.8807 93 101 94.1193 101 95.5C101 96.8807 99.8807 98 98.5 98H29.5C28.1193 98 27 96.8807 27 95.5C27 94.1193 28.1193 93 29.5 93H30V61C30 60.4477 30.4477 60 31 60H38ZM81.5 23C93.9264 23 104 33.0736 104 45.5C104 57.9264 93.9264 68 81.5 68C69.0736 68 59 57.9264 59 45.5C59 33.0736 69.0736 23 81.5 23ZM64 45.5049C64.0026 55.0004 71.5679 62.7276 81 62.9922V45.6025L64 45.5049ZM81.666 44.5H98.9717C98.4582 35.3859 90.9705 28.137 81.7598 28.0029L81.666 44.5ZM79.7598 28.0859C73.5201 28.702 68.2436 32.5949 65.6748 38.0205C65.3955 39.0403 65.2247 40.0375 65.127 40.9609C65.0236 41.9383 65.005 42.8126 65.0195 43.5117L79.6719 43.5957L79.7598 28.0859Z" fill="url(#paint0_linear_267_2)"/>
<defs>
<linearGradient id="paint0_linear_267_2" x1="64" y1="14" x2="64" y2="114" gradientUnits="userSpaceOnUse">
<stop stop-color="#0D000D"/>
<stop offset="1" stop-color="#1D001F"/>
</linearGradient>
</defs>
</svg>
